<svg xmlns="http://www.w3.org/2000/svg" width="126.983" height="34.028" viewBox="0 0 126.983 34.028"><defs></defs><g transform="translate(56.843 9.41)"><path class="a" d="M-829.442,798.776a1.926,1.926,0,0,0-2.048-1.965h-.014a1.843,1.843,0,0,0-2,1.98c-.048,2.363-.083,4.5-.024,6.666a5.311,5.311,0,0,0,3.3,4.929,5.647,5.647,0,0,0,5.953-.584,1.739,1.739,0,0,0,.209-.183,1.179,1.179,0,0,1,.77-.414l.139-.008.086.109c.012.014.026.028.04.042a.528.528,0,0,1,.169.28c.248,1.465.984,1.423,2.6,1.331l.5-.027c1.066-.05,1.146-.791,1.146-1.915q0-1.4,0-2.8c0-2.2,0-4.471-.006-6.706a3.073,3.073,0,0,0-.66-2.209,2,2,0,0,0-1.459-.491c-1.416.011-2.055.863-2.071,2.762-.009,1.1-.008,2.193-.007,3.289v1.463a3.625,3.625,0,0,1-.6,2.231,3.322,3.322,0,0,1-3.6,1.252,3.239,3.239,0,0,1-2.36-3.125c-.025-.922-.023-1.858-.02-2.763C-829.407,800.888-829.4,799.821-829.442,798.776Z" transform="translate(849.176 -791.398)"/><path class="a" d="M-879.694,797.039a1.9,1.9,0,0,0-1.521.094,3.725,3.725,0,0,0-1.463,2.385c-.431,1.56-.866,3.119-1.307,4.7l-.687,2.465-.325-.326c-.061-.061-.111-.1-.149-.139a.552.552,0,0,1-.2-.262q-.417-1.459-.829-2.92-.6-2.123-1.21-4.244a2.626,2.626,0,0,0-1.188-1.624,1.924,1.924,0,0,0-.935-.238,2.226,2.226,0,0,0-.631.094,2.127,2.127,0,0,0-1.333,1.029,2.412,2.412,0,0,0-.079,1.9c.937,2.883,1.9,5.7,2.868,8.38a3.845,3.845,0,0,0,3.748,2.71h0a3.918,3.918,0,0,0,3.8-2.81c.49-1.374.969-2.779,1.433-4.138.373-1.091.745-2.182,1.126-3.27a3.7,3.7,0,0,0,.14-2.834A1.966,1.966,0,0,0-879.694,797.039Z" transform="translate(891.702 -791.483)"/><path class="a" d="M-705.038,779.493a5.038,5.038,0,0,0-.145-1.321,1.993,1.993,0,0,0-2.058-1.518,3.225,3.225,0,0,0-.329.017,1.907,1.907,0,0,0-1.809,1.967c-.029,4.942-.03,10.167,0,15.53a2.029,2.029,0,0,0,1.807,2.023,2.164,2.164,0,0,0,2.387-1.52,4.826,4.826,0,0,0,.15-1.317c.011-1.706.01-3.441.008-5.119v-3.611C-705.029,782.942-705.027,781.2-705.038,779.493Z" transform="translate(758.353 -776.654)"/><path class="a" d="M-670.457,803.251c.006-1.245.011-2.532-.015-3.8a1.818,1.818,0,0,0-1.362-1.872,1.815,1.815,0,0,0-2.2.679c-.256.444-.5.67-.779.731-.394.086-.756-.174-1.138-.449a5.554,5.554,0,0,0-6.062-.448,5.414,5.414,0,0,0-3.09,5.082c-.008.423-.006.846,0,1.27,0,.3,0,.608,0,.913a5.559,5.559,0,0,0,3.053,5.362,5.48,5.48,0,0,0,6.155-.468,1.424,1.424,0,0,1,.771-.349.59.59,0,0,1,.159.022c.309.085.485.409.629.747.312.728,1.593,1.027,2.917.681.715-.186.989-.64.978-1.617-.013-1.15-.01-2.319-.007-3.449q0-.585,0-1.17h-.009v-.268Q-670.462,804.05-670.457,803.251Zm-5.323,4.5a2.9,2.9,0,0,1-1.915.663,4.086,4.086,0,0,1-.689-.06c-1.9-.324-2.787-1.875-2.646-4.611a3.367,3.367,0,0,1,3.112-3.345,2.962,2.962,0,0,1,2.247.779,4.3,4.3,0,0,1,1.144,3.2A4.239,4.239,0,0,1-675.78,807.749Z" transform="translate(740.587 -791.832)"/><path class="a" d="M-762.9,796.946h-.062a7.075,7.075,0,0,0-6.984,6.808,6.994,6.994,0,0,0,6.6,7.288c1.588.078,3.213.047,4.784.017l.351-.007a1.766,1.766,0,0,0,1.259-.493,1.267,1.267,0,0,0,.357-.922c-.017-.8-.691-1.352-1.677-1.37-.926-.017-1.87-.016-2.782-.013-.575,0-1.15,0-1.725,0a4.234,4.234,0,0,1-3.438-1.695l-.063-.078a.852.852,0,0,1-.221-1.018.777.777,0,0,1,.8-.313c.046,0,.091.005.133.005,1.064-.006,2.128-.005,3.191,0h.8l.264-.006c.416,0,.831,0,1.247,0,.941.006,1.915.011,2.869-.013a1.491,1.491,0,0,0,1.092-.377,1.524,1.524,0,0,0,.3-1.139A7.135,7.135,0,0,0-762.9,796.946Zm3.557,5.524c-.157.307-.56.345-.85.347-.6,0-1.191,0-1.786,0h-.916l-.63,0-.771,0c-.348,0-.7,0-1.047-.008-.047,0-.1,0-.147,0a.853.853,0,0,1-.9-.386.826.826,0,0,1,.239-.972c.029-.033.057-.066.083-.1h0a4.013,4.013,0,0,1,3.28-1.456,4.063,4.063,0,0,1,3.2,1.625C-759.391,801.8-759.184,802.159-759.342,802.47Z" transform="translate(802.641 -791.497)"/></g><path class="a" d="M-1062.148,746.718a18.138,18.138,0,0,0-.3,2.189,19.42,19.42,0,0,1-.291,2.167,13.222,13.222,0,0,1-9.465,10.46c-4.981,1.6-9.559.553-13.6-3.1-2.787-2.517-4.236-5.837-4.56-10.447a6.314,6.314,0,0,0-6.527-6.185c-.1,0-.193,0-.291,0a6.393,6.393,0,0,0-6.153,5.541c-.417,3.533,1.417,6.434,4.565,7.219a19.607,19.607,0,0,0,2,.352c.468.066.952.134,1.427.225,4.143.794,7.04,2.31,9.117,4.769,2.009,2.378,3.072,5.377,3.346,9.438a6.725,6.725,0,0,0,6.642,6.29h.014a6.428,6.428,0,0,0,6.3-4.614,22.607,22.607,0,0,0,.625-3.567,13.476,13.476,0,0,1,4.48-8.817c2.224-1.96,4.973-3.045,8.914-3.519a11.227,11.227,0,0,0,3.931-1.1,6.368,6.368,0,0,0,2.936-7.536,6.56,6.56,0,0,0-6.728-4.87h-.164A6.474,6.474,0,0,0-1062.148,746.718Z" transform="translate(1103.396 -741.611)"/><path class="a" d="M-1013.683,755.334h-.018a4.242,4.242,0,0,0-4.249,4.2,4.358,4.358,0,0,0,1.246,3.124,4.148,4.148,0,0,0,2.957,1.225h.012a4.127,4.127,0,0,0,2.939-1.194,4.267,4.267,0,0,0,1.234-3.049A4.179,4.179,0,0,0-1013.683,755.334Z" transform="translate(1040.893 -751.649)"/></svg>