<svg xmlns="http://www.w3.org/2000/svg" width="141.666" height="88.214" viewBox="0 0 141.666 88.214"><defs></defs><g transform="translate(0 0)"><path class="a" d="M-996.464,754.85a47.061,47.061,0,0,0-.773,5.675,50.419,50.419,0,0,1-.753,5.617c-2.9,13.7-11.155,22.828-24.537,27.115-12.914,4.137-24.78,1.434-35.268-8.039-7.225-6.526-10.982-15.131-11.821-27.082-.567-8.062-6.019-16.034-16.92-16.034-.249,0-.5,0-.755.013a16.573,16.573,0,0,0-15.952,14.363c-1.082,9.158,3.674,16.679,11.834,18.714a50.9,50.9,0,0,0,5.2.914c1.214.172,2.469.348,3.7.584,10.739,2.059,18.25,5.988,23.636,12.364,5.208,6.165,7.964,13.939,8.673,24.467a17.435,17.435,0,0,0,17.22,16.305h.036a16.663,16.663,0,0,0,16.322-11.961,58.6,58.6,0,0,0,1.619-9.246c1.111-9.357,5.018-17.049,11.613-22.859,5.766-5.081,12.893-7.894,23.109-9.122a29.105,29.105,0,0,0,10.19-2.865c6.8-3.653,9.925-11.687,7.611-19.536-2.37-8.042-8.716-12.625-17.441-12.625-.142,0-.282,0-.425,0A16.782,16.782,0,0,0-996.464,754.85Z" transform="translate(1103.396 -741.611)"/><path class="a" d="M-1006.889,755.334h-.046a11,11,0,0,0-11.014,10.886,11.3,11.3,0,0,0,3.23,8.1,10.754,10.754,0,0,0,7.665,3.177h.03a10.7,10.7,0,0,0,7.62-3.1,11.062,11.062,0,0,0,3.2-7.9A10.835,10.835,0,0,0-1006.889,755.334Z" transform="translate(1077.429 -745.782)"/></g></svg>