<svg xmlns="http://www.w3.org/2000/svg" width="52.49" height="52.49" viewBox="0 0 52.49 52.49"><defs></defs><path class="a" d="M28.971,2.25A25.669,25.669,0,0,0,3.2,27.819a25.305,25.305,0,0,0,3.7,13.2L2.25,54.74l14.267-4.532A25.812,25.812,0,0,0,54.74,27.819,25.669,25.669,0,0,0,28.971,2.25ZM41.785,37.53c-.606,1.5-3.348,2.874-4.558,2.938s-1.243.937-7.831-1.926S18.845,28.718,18.532,28.27,15.98,24.632,16.1,21.421a7.3,7.3,0,0,1,2.508-5.357,2.524,2.524,0,0,1,1.785-.751c.519-.008.855-.015,1.239,0s.96-.08,1.459,1.247,1.692,4.587,1.845,4.92a1.194,1.194,0,0,1,.012,1.145,4.475,4.475,0,0,1-.7,1.064c-.344.369-.723.825-1.03,1.107-.342.312-.7.653-.34,1.32a19.719,19.719,0,0,0,3.489,4.656A17.979,17.979,0,0,0,31.535,34.2c.646.352,1.032.313,1.432-.109s1.715-1.845,2.179-2.48.9-.512,1.493-.273,3.768,1.94,4.414,2.291,1.077.531,1.231.808A5.411,5.411,0,0,1,41.785,37.53Z" transform="translate(-2.25 -2.25)"/></svg>