<svg xmlns="http://www.w3.org/2000/svg" width="30.03" height="22.523" viewBox="0 0 30.03 22.523"><defs></defs><path class="a" d="M13.832,10.476a4.692,4.692,0,1,1,4.692,4.692,4.692,4.692,0,0,1-4.692-4.692Zm-11.261,0a4.692,4.692,0,1,1,4.692,4.692A4.692,4.692,0,0,1,2.571,10.476Zm22.523,9.384V17.045a1.882,1.882,0,0,0-1.877-1.877H4.448a1.882,1.882,0,0,0-1.877,1.877V26.43a1.882,1.882,0,0,0,1.877,1.877H23.217a1.882,1.882,0,0,0,1.877-1.877V23.615L32.6,28.307V15.169ZM21.34,24.553H6.324V18.922H21.34Z" transform="translate(-2.571 -5.784)"/></svg>