<svg xmlns="http://www.w3.org/2000/svg" width="23.365" height="31.154" viewBox="0 0 23.365 31.154"><defs></defs><path class="a" d="M22.392,2.921a.976.976,0,0,0,.974-.974V.974A.976.976,0,0,0,22.392,0H.974A.976.976,0,0,0,0,.974v.974a.976.976,0,0,0,.974.974h.974v9.535C.718,13.07,0,13.806,0,14.6a11.668,11.668,0,0,0,5.281,9.766l-1.3,4.271a1.945,1.945,0,0,0,1.862,2.513H17.524a1.945,1.945,0,0,0,1.862-2.513l-1.3-4.271A11.668,11.668,0,0,0,23.365,14.6c0-.8-.718-1.533-1.947-2.148V2.921ZM4.868,4.381a.488.488,0,0,1,.487-.487H8.275a.488.488,0,0,1,.487.487v.974a.488.488,0,0,1-.487.487H5.355a.488.488,0,0,1-.487-.487ZM11.683,16.55c-4.691,0-8.494-.87-8.494-1.947s3.8-1.947,8.494-1.947,8.494.87,8.494,1.947-3.8,1.947-8.494,1.947Z"/></svg>